<?xml version="1.0" encoding="UTF-8"?>
<svg xmlns="http://www.w3.org/2000/svg" xmlns:xlink="http://www.w3.org/1999/xlink" width="2836" height="2836" viewBox="0 0 2836 2836">
<path fill-rule="evenodd" fill="rgb(100%, 100%, 100%)" fill-opacity="1" d="M 0.882812 0.46875 L 2835.53125 0.46875 L 2835.53125 2835.117188 L 0.882812 2835.117188 L 0.882812 0.46875 "/>
<path fill-rule="evenodd" fill="rgb(0%, 0%, 0%)" fill-opacity="1" d="M 1263.441406 1421.960938 C 1177.730469 1595.539062 1156.300781 1774.699219 1182.320312 1951.664062 C 1272.488281 1951.8125 1369.070312 1964.511719 1476.289062 1985.859375 C 1530.449219 1996.640625 1583.878906 2005.738281 1637.011719 2011.410156 C 1554.460938 1870.320312 1513.601562 1687.789062 1514.429688 1463.820312 C 1514.671875 1397.800781 1515.769531 1361.738281 1587.691406 1355.179688 C 1978.339844 1319.519531 2204.128906 1174.921875 2314.71875 875.441406 C 2255.621094 912.25 2189.351562 933.128906 2115.910156 938.078125 C 2007.671875 945.371094 1966.941406 922.039062 1906.320312 911.71875 C 1731.898438 882.03125 1603.371094 1012.449219 1547.441406 994.371094 C 1493.539062 970.910156 1483.46875 788.078125 1333.058594 694.929688 C 1280.78125 662.539062 1234.800781 653.078125 1158.46875 575.988281 C 1106.679688 523.691406 1070.808594 464.179688 1050.859375 397.480469 C 935.125 696.429688 1009.839844 955.171875 1281.898438 1241.828125 C 1335.628906 1298.441406 1290.890625 1366.351562 1263.441406 1421.960938 "/>
<path fill-rule="evenodd" fill="rgb(0.78125%, 54.881287%, 67.771912%)" fill-opacity="1" d="M 1334.089844 2391.820312 C 1055.640625 2341.402344 817.398438 2326.449219 631.816406 2364.882812 C 834.785156 2278.140625 1008.941406 2281.015625 1348.398438 2335.683594 C 1612.230469 2378.179688 1769.640625 2436.484375 2036.371094 2306.132812 C 1801.398438 2495.410156 1596.238281 2439.285156 1334.089844 2391.820312 "/>
<path fill-rule="evenodd" fill="rgb(0.78125%, 54.881287%, 67.771912%)" fill-opacity="1" d="M 1241.070312 2235.207031 C 920.753906 2200.863281 659.753906 2242.535156 458.082031 2360.222656 C 787.640625 2025.8125 1063.988281 1992.898438 1484.160156 2076.550781 C 1782.929688 2136.035156 2062.191406 2150.582031 2378.328125 1891.246094 C 2203.390625 2201.511719 1976.199219 2289.183594 1737.429688 2292.457031 C 1578.828125 2294.632812 1425.648438 2254.992188 1241.070312 2235.207031 "/>
</svg>
